<?xml version="1.0" standalone="no"?>
<!DOCTYPE svg PUBLIC "-//W3C//DTD SVG 20010904//EN"
 "http://www.w3.org/TR/2001/REC-SVG-20010904/DTD/svg10.dtd">
<svg version="1.0" xmlns="http://www.w3.org/2000/svg"
 width="512.000000pt" height="512.000000pt" viewBox="0 0 512.000000 512.000000"
 preserveAspectRatio="xMidYMid meet">
<metadata>
Created by potrace 1.14, written by Peter Selinger 2001-2017
</metadata>
<g transform="translate(0.000000,512.000000) scale(0.100000,-0.100000)"
fill="#000000" stroke="none">
<path d="M2358 5065 c-2 -2 -32 -6 -68 -9 -36 -3 -76 -8 -90 -11 -14 -3 -38
-7 -55 -9 -16 -2 -41 -7 -55 -10 -14 -3 -36 -8 -50 -10 -181 -29 -511 -153
-704 -264 -490 -280 -869 -700 -1084 -1205 -77 -180 -141 -397 -167 -567 -25
-161 -29 -219 -30 -410 0 -170 6 -280 20 -370 11 -71 23 -136 31 -170 3 -14 8
-35 10 -47 7 -35 75 -266 82 -278 4 -5 7 -14 8 -20 4 -22 90 -215 132 -295 43
-80 170 -283 205 -325 9 -11 45 -56 80 -100 177 -222 483 -476 727 -604 36
-19 79 -42 95 -51 34 -19 225 -101 240 -104 6 -1 15 -4 20 -8 9 -6 197 -63
240 -73 73 -17 156 -34 190 -39 23 -4 50 -8 60 -10 145 -28 540 -29 725 -1 61
9 108 17 150 27 25 5 56 12 70 14 31 6 176 49 250 74 586 200 1112 659 1402
1222 44 84 54 106 107 235 73 178 135 435 159 658 14 137 8 477 -12 605 -14
92 -19 120 -28 160 -5 25 -11 52 -13 60 -36 173 -134 433 -228 610 -54 102
-191 308 -270 405 -267 328 -632 595 -1032 753 -168 67 -405 128 -565 147 -25
3 -76 10 -115 14 -63 8 -430 12 -437 6z m452 -600 c355 -61 585 -151 835 -323
117 -80 168 -124 280 -236 300 -301 496 -707 542 -1122 15 -132 8 -432 -11
-530 -2 -12 -7 -38 -10 -58 -20 -123 -82 -309 -156 -464 -281 -587 -828 -985
-1480 -1076 -98 -13 -431 -16 -485 -3 -11 2 -42 8 -70 11 -99 14 -340 79 -359
97 -6 5 -17 9 -26 9 -27 0 -270 124 -366 188 -165 109 -348 279 -467 435 -116
151 -234 370 -291 537 -22 65 -49 160 -48 167 1 2 -4 17 -9 35 -5 18 -14 62
-20 98 -6 36 -13 83 -17 105 -15 92 -6 466 13 535 2 8 6 31 9 50 11 72 58 238
97 337 217 554 688 983 1261 1148 104 30 220 53 303 61 33 3 62 7 63 9 6 6
374 -3 412 -10z"/>
<path d="M1994 4043 c-12 -2 -45 -24 -73 -48 l-52 -44 -82 1 c-167 1 -296 -66
-370 -192 -55 -95 -55 -94 -55 -985 0 -576 3 -832 11 -860 19 -67 106 -143
233 -205 138 -68 128 -64 267 -109 109 -36 117 -40 102 -55 -21 -20 -24 -20
-49 3 -26 24 -69 33 -102 21 -27 -11 -335 -313 -353 -347 -50 -96 72 -190 156
-119 l28 24 28 -24 c38 -33 96 -33 134 0 l28 24 29 -25 c46 -38 102 -29 164
28 l47 44 463 0 462 -1 34 -36 c19 -20 43 -41 53 -46 31 -17 91 -7 119 19 23
21 27 22 37 8 32 -43 111 -47 153 -8 24 22 27 23 38 7 18 -25 66 -40 103 -33
44 8 73 48 73 98 0 39 -6 47 -171 213 -183 184 -201 195 -265 169 -18 -7 -36
-20 -41 -29 -8 -15 -11 -15 -28 4 -10 11 -16 22 -14 24 2 2 38 13 79 25 114
34 314 119 379 161 31 20 74 55 95 76 73 76 69 16 69 934 1 454 -2 845 -6 870
-4 25 -18 68 -32 95 -72 148 -198 222 -385 228 -94 3 -95 3 -130 39 -20 20
-54 41 -75 47 -38 10 -1050 14 -1101 4z m845 -711 c5 -10 9 -91 8 -181 -2
-136 -5 -165 -18 -174 -24 -18 -552 -16 -573 2 -13 11 -16 40 -16 180 0 117 4
171 12 179 9 9 88 12 295 12 261 0 283 -1 292 -18z m-273 -735 c168 -97 231
-350 129 -522 -42 -71 -121 -145 -156 -145 -33 0 -125 96 -160 168 -29 58 -34
78 -36 155 -2 70 2 101 19 145 30 83 77 147 138 188 40 28 38 27 66 11z m-6
-1116 c50 4 110 3 148 -1 26 -3 36 -11 46 -35 7 -17 21 -38 30 -48 16 -16 3
-17 -238 -17 l-255 0 25 37 c13 20 23 42 20 49 -3 7 2 11 12 10 9 -2 28 1 42
5 14 5 50 6 80 3 30 -4 71 -5 90 -3z"/>
</g>
</svg>
