<?xml version="1.0" standalone="no"?>
<!DOCTYPE svg PUBLIC "-//W3C//DTD SVG 20010904//EN"
 "http://www.w3.org/TR/2001/REC-SVG-20010904/DTD/svg10.dtd">
<svg version="1.0" xmlns="http://www.w3.org/2000/svg"
 width="512.000000pt" height="512.000000pt" viewBox="0 0 512.000000 512.000000"
 preserveAspectRatio="xMidYMid meet">
<metadata>
Created by potrace 1.14, written by Peter Selinger 2001-2017
</metadata>
<g transform="translate(0.000000,512.000000) scale(0.100000,-0.100000)"
fill="#000000" stroke="none">
<path d="M2274 5054 c-481 -58 -925 -245 -1299 -547 -321 -259 -599 -639 -750
-1025 -300 -768 -210 -1627 240 -2302 109 -164 189 -261 321 -394 710 -709
1758 -927 2696 -561 225 88 467 230 663 388 321 259 599 639 750 1025 300 768
210 1627 -240 2302 -109 164 -189 261 -321 394 -478 478 -1115 739 -1789 735
-88 -1 -210 -7 -271 -15z m563 -389 c950 -124 1704 -878 1828 -1828 31 -240
15 -547 -41 -776 -210 -855 -919 -1492 -1787 -1606 -151 -19 -403 -19 -554 0
-950 124 -1704 878 -1828 1828 -19 151 -19 403 0 554 124 945 873 1699 1816
1827 143 19 420 20 566 1z"/>
<path d="M2170 4034 c-19 -8 -51 -30 -70 -48 -35 -34 -36 -34 -145 -38 -92 -4
-120 -9 -168 -31 -73 -33 -160 -116 -191 -181 -46 -98 -47 -121 -44 -991 l3
-820 27 -46 c50 -85 157 -155 358 -232 63 -25 143 -53 178 -62 l63 -18 -23
-24 c-19 -21 -23 -22 -31 -7 -13 22 -67 43 -98 37 -17 -3 -88 -66 -203 -182
-142 -143 -176 -183 -176 -205 0 -89 93 -136 159 -80 l31 26 31 -26 c22 -18
42 -26 70 -26 35 0 48 7 94 51 l55 52 555 -5 555 -4 38 -36 c63 -62 118 -69
163 -22 l22 23 35 -30 c31 -27 41 -30 76 -26 55 8 86 44 86 99 0 40 -5 47
-172 214 -108 110 -181 175 -198 179 -32 7 -80 -9 -100 -35 -15 -18 -15 -18
-39 0 -16 14 -19 21 -10 24 169 55 281 96 354 130 149 71 246 157 262 235 5
20 8 407 8 861 0 924 3 882 -72 990 -80 114 -193 170 -345 170 -86 0 -89 1
-127 35 -73 66 -64 65 -543 65 -364 -1 -439 -3 -468 -16z m860 -703 c6 -11 10
-88 10 -179 0 -127 -3 -162 -14 -172 -11 -8 -117 -13 -375 -17 -326 -6 -362
-5 -385 11 l-26 16 0 168 c0 117 4 172 12 180 9 9 109 12 390 12 363 0 378 -1
388 -19z m-315 -709 c115 -55 195 -163 218 -296 27 -162 -67 -342 -215 -411
-66 -31 -90 -31 -154 -1 -241 112 -298 442 -109 631 43 43 152 105 185 105 8
0 42 -13 75 -28z m-305 -1118 c31 -9 110 -18 180 -20 173 -6 186 -6 249 10
116 29 107 30 103 -13 -3 -29 2 -44 23 -69 l27 -32 -351 0 -350 0 25 38 c18
26 24 47 22 70 -5 37 -2 37 72 16z"/>
</g>
</svg>
